<?xml version="1.0" standalone="no"?>
<!DOCTYPE svg PUBLIC "-//W3C//DTD SVG 20010904//EN"
 "http://www.w3.org/TR/2001/REC-SVG-20010904/DTD/svg10.dtd">
<svg version="1.0" xmlns="http://www.w3.org/2000/svg"
 width="968.000000pt" height="968.000000pt" viewBox="0 0 968.000000 968.000000"
 preserveAspectRatio="xMidYMid meet">
<metadata>
Created by potrace 1.14, written by Peter Selinger 2001-2017
</metadata>
<g transform="translate(0.000000,968.000000) scale(0.100000,-0.100000)"
fill="#000000" stroke="none">
<path d="M4628 9545 c-119 -69 -221 -125 -227 -125 -6 0 -11 -4 -11 -10 0 -5
-4 -10 -9 -10 -5 0 -70 -36 -146 -80 -76 -44 -141 -80 -146 -80 -5 0 -9 -4 -9
-10 0 -5 -9 -10 -19 -10 -11 0 -21 -4 -23 -8 -3 -7 -156 -98 -283 -168 -54
-29 -109 -61 -140 -82 -11 -6 -27 -15 -35 -19 -8 -4 -49 -27 -90 -51 -72 -43
-100 -59 -173 -101 -42 -23 -300 -172 -344 -197 -17 -11 -83 -48 -145 -84 -62
-35 -122 -70 -133 -77 -11 -7 -27 -16 -35 -20 -22 -12 -162 -92 -180 -103 -22
-14 -373 -215 -390 -223 -8 -4 -24 -13 -35 -20 -11 -7 -74 -43 -140 -81 -66
-38 -129 -74 -140 -81 -11 -7 -23 -12 -26 -11 -3 1 -22 -11 -42 -26 -19 -16
-38 -28 -40 -28 -5 0 -284 -158 -317 -180 -40 -25 -165 -93 -169 -91 -2 2 -7
-1 -10 -6 -5 -8 -456 -272 -508 -297 l-23 -11 0 -2428 c0 -2303 1 -2428 18
-2434 9 -4 64 -34 122 -68 58 -34 125 -73 150 -87 25 -14 85 -48 133 -77 49
-28 92 -51 97 -51 5 0 10 -4 12 -8 1 -4 54 -37 116 -72 63 -36 130 -75 150
-87 21 -12 44 -25 52 -29 8 -4 48 -27 87 -51 40 -23 75 -43 79 -43 3 0 18 -9
32 -19 37 -26 133 -81 155 -88 9 -3 17 -9 17 -14 0 -5 4 -9 9 -9 5 0 65 -32
133 -71 67 -39 143 -83 168 -97 25 -14 73 -42 107 -63 35 -21 72 -40 83 -44
11 -3 20 -11 20 -16 0 -5 5 -9 10 -9 6 0 40 -18 76 -40 36 -22 68 -40 70 -40
3 0 21 -11 42 -23 40 -26 106 -64 192 -111 30 -16 57 -33 58 -38 2 -4 7 -8 12
-8 5 0 91 -47 191 -105 100 -58 186 -105 191 -105 4 0 8 -4 8 -10 0 -5 9 -10
19 -10 11 0 21 -4 23 -8 2 -5 23 -20 48 -34 72 -41 123 -70 155 -89 17 -11 37
-22 45 -26 8 -4 83 -46 165 -93 172 -99 228 -131 305 -173 30 -16 62 -35 70
-41 8 -6 33 -21 55 -33 58 -30 105 -57 231 -129 61 -35 116 -64 122 -64 6 0
12 -3 14 -7 3 -8 69 -46 115 -68 13 -5 23 -13 23 -17 0 -5 9 -8 20 -8 11 0 20
-3 20 -8 0 -4 15 -14 33 -21 17 -8 53 -27 80 -43 58 -34 92 -41 108 -22 6 8
15 14 19 14 5 0 71 36 148 80 77 44 145 80 151 80 6 0 11 4 11 9 0 5 8 11 18
15 9 3 24 10 32 16 38 25 263 150 271 150 5 0 9 4 9 9 0 5 12 14 28 20 26 10
102 51 112 61 3 3 21 13 40 24 39 21 36 19 285 161 99 57 196 112 215 124 19
11 51 29 70 38 19 10 37 20 40 23 11 11 46 31 73 41 15 6 27 15 27 20 0 5 4 9
9 9 9 0 59 28 506 285 132 76 260 149 284 163 25 14 67 38 93 53 27 16 52 29
55 29 4 0 14 6 22 14 9 8 41 26 71 42 30 15 57 31 60 34 3 4 30 20 60 37 112
62 206 116 232 135 16 11 28 17 28 13 0 -3 19 7 43 22 23 16 63 40 90 53 26
14 47 28 47 32 0 5 4 8 10 8 8 0 80 38 165 89 17 10 57 33 90 51 33 18 65 36
70 40 13 9 332 193 405 233 30 17 66 38 80 47 14 9 64 38 112 65 l88 49 0
2426 0 2425 -37 20 c-21 11 -54 29 -73 41 -19 11 -55 32 -80 46 -53 30 -86 49
-203 117 -49 28 -93 51 -98 51 -5 0 -9 5 -9 10 0 6 -4 10 -9 10 -9 0 -176 93
-231 128 -14 9 -28 15 -32 14 -5 -1 -8 3 -8 8 0 6 -4 10 -10 10 -5 0 -33 14
-62 31 -29 18 -71 42 -93 54 -165 94 -342 196 -351 202 -12 10 -44 28 -99 58
-22 12 -85 48 -140 80 -55 32 -109 63 -120 69 -111 61 -301 172 -303 178 -2 5
-7 8 -12 8 -7 0 -306 167 -365 205 -11 7 -24 13 -30 14 -5 1 -17 8 -25 15 -8
8 -35 25 -60 38 -25 14 -61 34 -80 45 -19 11 -69 40 -110 63 -41 24 -78 48
-82 54 -4 6 -8 8 -8 4 0 -4 -35 13 -77 38 -43 26 -103 60 -133 76 -30 17 -67
39 -82 50 -16 11 -28 16 -28 11 0 -4 -4 -3 -8 2 -6 9 -86 57 -234 140 -10 6
-141 81 -291 167 -149 86 -344 198 -432 248 -88 51 -164 96 -169 101 -6 5 -13
9 -16 9 -3 0 -103 -56 -222 -125z m552 -530 c151 -87 295 -169 320 -183 25
-13 50 -28 55 -32 10 -8 51 -31 130 -73 22 -12 42 -25 45 -28 3 -3 37 -23 75
-44 62 -33 152 -85 295 -169 25 -15 53 -29 63 -33 9 -3 17 -9 17 -14 0 -5 6
-9 13 -9 7 0 29 -11 49 -25 20 -14 44 -25 52 -25 9 0 16 -4 16 -8 0 -5 18 -17
40 -28 22 -10 40 -22 40 -25 0 -3 16 -11 35 -19 19 -8 35 -17 35 -21 0 -4 9
-10 20 -14 11 -3 81 -42 156 -86 75 -43 138 -79 140 -79 3 0 21 -11 42 -24 53
-35 142 -85 175 -99 15 -6 27 -15 27 -19 0 -4 4 -8 9 -8 10 0 131 -69 141 -80
3 -3 24 -14 48 -24 23 -11 42 -23 42 -28 0 -4 6 -8 14 -8 7 0 25 -9 38 -20 14
-10 28 -17 30 -14 3 2 11 -2 18 -11 7 -8 16 -15 21 -15 4 0 59 -30 121 -68 62
-37 116 -68 121 -70 4 -1 17 -8 30 -16 61 -38 149 -86 158 -86 5 0 9 -3 9 -7
0 -5 10 -13 23 -19 63 -30 147 -79 147 -86 0 -4 5 -8 11 -8 7 0 91 -46 188
-102 97 -55 187 -108 201 -115 14 -8 52 -30 85 -49 33 -19 79 -44 103 -56 28
-15 42 -29 43 -42 0 -12 2 -1006 2 -2211 l2 -2190 -30 -21 c-16 -12 -55 -35
-85 -51 -30 -17 -84 -47 -118 -67 -35 -20 -68 -36 -73 -36 -5 0 -9 -4 -9 -9 0
-5 -8 -11 -17 -15 -10 -3 -34 -15 -53 -27 -120 -72 -470 -269 -479 -269 -6 0
-11 -3 -11 -8 0 -4 -17 -16 -37 -27 -39 -21 -176 -98 -203 -115 -8 -5 -53 -31
-99 -57 -47 -26 -110 -63 -140 -80 -31 -18 -74 -43 -96 -55 -22 -12 -49 -28
-60 -35 -11 -7 -29 -17 -40 -23 -11 -5 -47 -26 -80 -45 -33 -20 -71 -41 -85
-47 -14 -7 -27 -15 -30 -18 -3 -3 -14 -10 -25 -16 -56 -30 -91 -50 -95 -54 -3
-3 -14 -10 -25 -16 -59 -32 -133 -74 -255 -144 -122 -70 -196 -112 -255 -144
-11 -6 -22 -13 -25 -16 -3 -3 -14 -10 -25 -16 -60 -33 -198 -111 -303 -172
-31 -18 -68 -38 -82 -45 -14 -6 -27 -14 -30 -17 -3 -3 -18 -12 -35 -20 -16 -8
-36 -21 -43 -28 -7 -6 -19 -12 -27 -12 -7 0 -15 -3 -17 -7 -1 -5 -21 -17 -43
-28 -22 -10 -47 -24 -55 -31 -8 -6 -37 -24 -65 -39 -27 -14 -63 -34 -80 -44
-16 -10 -55 -31 -85 -48 -30 -17 -84 -47 -118 -67 -35 -20 -68 -36 -73 -36 -5
0 -9 -4 -9 -8 0 -4 -12 -13 -27 -19 -16 -6 -57 -28 -93 -49 -149 -84 -150 -85
-173 -70 -12 8 -49 28 -82 46 -33 18 -78 43 -100 56 -22 13 -51 29 -65 37 -55
30 -266 149 -280 157 -20 13 -118 69 -155 89 -27 15 -372 212 -413 236 -9 6
-71 41 -137 78 -66 38 -136 78 -155 89 -19 11 -53 30 -75 41 -22 12 -47 27
-55 33 -8 6 -42 26 -75 43 -32 18 -71 41 -86 52 -15 10 -30 19 -34 19 -4 0
-35 17 -69 38 -33 20 -72 43 -86 50 -38 19 -97 53 -175 99 -38 22 -86 50 -105
61 -19 11 -64 36 -100 57 -36 21 -85 49 -110 63 -25 14 -57 32 -72 41 -41 24
-218 126 -258 148 -19 11 -78 45 -130 75 -97 56 -477 275 -540 311 -19 11 -60
34 -90 50 -30 17 -66 38 -79 49 -13 10 -28 18 -33 18 -5 0 -32 15 -61 33 -29
18 -69 41 -89 52 -21 11 -38 26 -39 35 0 8 -1 1003 -2 2210 l-2 2195 52 32
c51 31 109 65 188 109 73 40 410 234 425 244 8 6 29 17 45 26 17 8 44 23 60
34 17 11 39 24 50 29 11 5 62 34 113 64 51 31 102 59 112 62 11 4 20 11 20 16
0 5 3 8 8 7 4 -1 18 5 32 13 61 39 201 118 220 124 11 3 20 11 20 16 0 5 4 9
9 9 5 0 49 23 98 51 91 53 132 76 243 139 36 20 103 59 150 85 47 27 87 52 88
57 2 4 8 8 13 8 9 0 82 41 259 143 47 28 105 61 130 75 25 14 104 59 175 100
72 41 150 86 174 100 25 14 67 38 93 53 27 16 53 29 58 29 6 0 10 3 10 8 0 4
27 20 60 36 33 16 60 33 60 38 0 4 4 8 9 8 8 0 138 74 546 308 33 18 84 47
113 63 29 17 74 42 100 58 46 27 48 27 77 11 17 -10 154 -88 305 -175z"/>
<path d="M5132 6848 c-113 -12 -124 -20 -139 -103 -7 -39 -15 -86 -18 -105 -2
-19 -7 -46 -10 -60 -13 -66 -27 -137 -30 -160 -2 -14 -8 -50 -14 -80 -6 -30
-13 -66 -16 -80 -3 -14 -7 -36 -10 -50 -2 -14 -7 -38 -10 -55 -3 -16 -12 -64
-20 -105 -7 -41 -16 -88 -19 -105 -3 -16 -10 -55 -16 -85 -6 -30 -13 -66 -16
-80 -2 -14 -7 -36 -9 -50 -3 -14 -8 -37 -10 -52 -14 -79 -26 -147 -32 -173 -2
-11 -6 -33 -9 -50 -3 -16 -12 -61 -20 -100 -8 -38 -17 -83 -20 -100 -16 -97
-24 -137 -30 -158 -3 -10 -7 -32 -10 -50 -2 -18 -6 -43 -9 -57 -10 -46 -15
-75 -21 -110 -3 -19 -10 -54 -15 -78 -5 -23 -12 -57 -14 -75 -3 -17 -16 -86
-29 -152 -13 -66 -22 -123 -19 -127 2 -5 0 -8 -4 -8 -5 0 -9 -8 -9 -17 -1 -20
-2 -28 -37 -213 -15 -74 -28 -146 -31 -160 -2 -14 -12 -61 -20 -105 -8 -44
-18 -93 -21 -110 -2 -16 -14 -75 -25 -130 -11 -55 -22 -113 -24 -130 -2 -16
-5 -30 -6 -30 -1 0 -3 -9 -5 -20 -1 -11 -6 -36 -9 -55 -10 -54 -38 -202 -43
-230 -2 -14 -11 -56 -18 -95 -8 -38 -17 -86 -19 -105 -3 -19 -5 -35 -6 -35 -1
0 -4 -11 -6 -25 -1 -14 -6 -43 -10 -65 -14 -76 -12 -88 21 -97 36 -11 350 -17
366 -8 6 4 10 10 8 14 -2 5 14 106 26 166 8 37 45 228 50 255 2 17 7 41 10 55
3 14 7 36 10 50 5 27 12 60 20 100 2 14 7 39 10 55 3 17 7 40 9 51 2 12 7 39
10 60 4 22 8 46 11 54 5 17 13 59 21 110 3 19 8 44 12 55 3 11 7 29 8 40 7 61
13 95 17 102 3 5 8 29 12 53 3 25 8 52 10 60 2 8 7 30 10 49 3 19 7 37 9 40 2
3 7 26 10 51 3 25 8 56 11 70 8 36 24 120 30 160 3 19 8 42 10 50 2 8 7 29 9
45 3 17 10 53 16 80 6 28 12 61 14 75 6 30 14 76 21 110 3 14 9 48 15 75 5 28
11 60 14 71 2 12 7 39 11 60 3 22 14 82 25 134 15 79 35 179 65 340 3 14 9 48
15 75 5 28 12 66 15 85 3 19 8 42 10 50 2 8 7 31 10 50 3 19 10 55 16 80 5 25
12 59 14 75 2 17 4 30 5 30 2 0 8 33 15 84 3 25 8 48 10 51 2 4 6 20 9 36 3
16 10 54 16 84 6 30 13 66 16 80 2 14 7 36 10 50 3 14 8 39 10 55 6 34 10 57
18 98 3 15 8 37 10 50 3 12 7 33 10 47 10 46 16 75 21 110 3 19 9 49 13 65 17
69 -4 90 -98 94 -30 1 -68 3 -85 4 -16 1 -63 -1 -103 -5z"/>
<path d="M3855 6175 c-93 -51 -197 -108 -230 -126 -33 -18 -63 -32 -67 -31 -5
1 -8 -1 -8 -6 0 -4 -15 -14 -32 -21 -18 -8 -66 -34 -106 -58 -41 -24 -76 -43
-79 -43 -3 0 -58 -29 -122 -64 -64 -35 -152 -83 -196 -106 -44 -24 -84 -46
-90 -50 -5 -4 -64 -36 -130 -71 -66 -34 -121 -66 -123 -71 -2 -4 -12 -8 -22
-8 -10 0 -21 -4 -25 -9 -3 -5 -31 -23 -63 -39 -31 -16 -77 -40 -102 -54 -25
-14 -85 -47 -135 -74 -49 -27 -103 -55 -118 -64 -44 -24 -177 -96 -237 -128
l-55 -30 0 -312 c0 -194 4 -318 10 -325 6 -7 44 -30 85 -52 79 -43 130 -70
300 -163 58 -32 137 -74 175 -95 82 -44 153 -83 230 -125 30 -16 80 -43 110
-60 109 -59 161 -88 240 -130 44 -24 100 -54 125 -68 62 -34 189 -102 225
-120 17 -8 42 -24 58 -34 15 -11 27 -16 27 -12 0 3 6 2 13 -4 13 -11 71 -43
157 -88 30 -16 58 -33 62 -39 5 -7 8 -7 8 0 0 7 3 7 8 0 4 -5 39 -26 77 -47
39 -20 100 -52 137 -71 43 -23 70 -32 74 -25 4 6 8 167 9 358 l2 348 -696 348
c-383 191 -702 353 -710 358 -7 6 -18 11 -25 12 -24 4 -89 48 -75 52 8 2 45
19 82 38 38 19 75 34 83 34 8 0 14 5 14 10 0 6 5 10 11 10 6 0 68 28 137 61
70 34 159 76 197 94 39 18 108 52 155 75 47 23 93 43 103 45 9 2 24 11 33 19
8 9 20 16 26 16 6 0 63 25 127 56 155 76 226 108 226 103 0 -2 14 5 30 17 17
11 45 26 63 34 18 7 75 34 126 59 l92 46 0 363 c0 250 -3 362 -10 361 -6 -1
-87 -43 -181 -94z"/>
<path d="M5648 6258 c-2 -7 -4 -170 -4 -363 l1 -350 75 -37 c72 -36 296 -143
465 -223 44 -21 116 -55 160 -76 44 -22 85 -39 91 -39 6 0 17 -7 24 -15 7 -9
15 -13 18 -11 3 3 17 -3 31 -13 14 -10 30 -19 34 -19 4 -1 36 -14 70 -30 232
-111 305 -146 410 -196 65 -31 123 -56 129 -56 8 0 8 -3 3 -9 -17 -15 -205
-110 -205 -103 0 4 -4 2 -8 -3 -4 -6 -281 -148 -617 -315 -335 -168 -612 -307
-615 -310 -3 -3 -18 -12 -35 -20 l-30 -16 0 -357 c-1 -354 0 -357 20 -351 11
4 25 10 30 14 9 7 128 72 205 112 19 10 62 34 95 52 33 18 82 45 109 59 27 15
54 31 60 36 6 5 22 12 36 16 14 4 27 11 30 15 3 3 129 73 280 155 151 81 280
152 286 156 6 5 14 6 17 2 4 -3 7 -1 7 5 0 7 4 12 8 12 5 0 51 23 103 51 115
63 190 103 389 208 85 45 162 86 170 91 40 26 90 50 90 43 0 -5 4 -3 8 3 4 6
44 31 90 54 46 24 86 48 90 54 7 13 10 623 2 635 -5 8 -67 43 -235 131 -55 29
-118 63 -140 75 -22 12 -94 51 -160 85 -66 35 -123 68 -127 74 -4 6 -8 7 -8 3
0 -5 -15 0 -32 11 -35 20 -125 69 -248 135 -111 59 -273 146 -290 157 -8 4
-55 30 -105 56 -49 26 -103 56 -118 66 -15 11 -33 21 -40 22 -7 1 -28 11 -47
22 -19 12 -71 41 -115 64 -44 24 -94 51 -110 60 -17 10 -66 36 -110 60 -86 46
-152 82 -201 112 -24 14 -33 15 -36 6z"/>
</g>
</svg>
